<svg xmlns="http://www.w3.org/2000/svg" width="590" height="371" fill="none" viewBox="0 0 590 371"><g filter="url(#filter0_d)"><rect width="557.089" height="149.235" fill="#fff" rx="8.397" transform="matrix(0.997631 0.068787 -0.0957466 0.995406 24.2891 7)"/><rect width="557.299" height="149.163" fill="#DCA85A" rx="8.397" transform="matrix(0.998576 -0.0533544 0.073661 0.997283 10.4941 195.242)"/><path fill="#fff" d="M54.2743 274.67C54.7651 281.653 56.0595 287.426 58.1576 291.989C59.0538 294.091 60.057 295.721 61.1673 296.878C62.3643 297.937 63.6153 298.432 64.9202 298.364C66.2251 298.296 67.3411 297.537 68.2682 296.087C69.1953 294.637 69.9001 292.685 70.3824 290.23C71.28 285.698 71.4605 279.614 70.9239 271.98C70.3874 264.345 69.2728 258.47 67.5803 254.353C65.8812 250.143 63.7267 248.106 61.1169 248.242C56.9226 248.461 54.5894 253.862 54.1171 264.446C53.9667 267.631 54.0191 271.039 54.2743 274.67ZM42.361 274.871C42.06 270.588 42.3445 266.649 43.2143 263.053C44.0841 259.456 45.3595 256.306 47.0404 253.602C50.6557 247.807 55.2595 244.763 60.8519 244.472C66.5375 244.175 71.4212 246.444 75.5028 251.277C79.8836 256.375 82.3881 263.393 83.0163 272.33C83.579 280.337 82.056 287.285 78.4473 293.173C75.0184 298.959 70.5078 301.997 64.9154 302.289C59.2298 302.586 54.253 300.322 49.9849 295.499C45.5109 290.406 42.9696 283.53 42.361 274.871ZM106.386 299.566C102.471 299.77 98.2932 300.221 93.852 300.92C93.6459 300.651 93.4668 300.099 93.3147 299.266C93.2559 298.428 93.3531 297.816 93.6066 297.429C95.5639 297.327 96.9955 297.065 97.9014 296.644C98.8008 296.13 99.2872 295.731 99.3608 295.447C99.7483 294.305 99.7785 291.407 99.4513 286.752L97.2724 255.748C97.1284 253.7 96.897 252.404 96.5781 251.86C96.2527 251.222 95.7638 250.921 95.1113 250.955C94.5521 250.984 93.5432 251.27 92.0846 251.814C90.7126 252.259 89.5337 252.788 88.5477 253.4C87.6826 253.071 87.2338 252.674 87.201 252.208C87.1683 251.743 87.0955 251.373 86.9827 251.099C86.9631 250.819 87.0465 250.675 87.2329 250.665L107.836 240.339L107.976 240.332C108.256 240.318 108.505 240.538 108.724 240.994C108.943 241.45 109.106 241.768 109.212 241.95C108.771 243.655 108.694 246.556 108.982 250.652L111.475 286.125C111.802 290.78 112.132 293.472 112.464 294.203C112.789 294.84 113.195 295.286 113.68 295.541C114.253 295.698 114.872 295.853 115.537 296.005C116.669 296.133 117.747 296.17 118.772 296.116C119.078 296.474 119.214 297.075 119.18 297.917C119.238 298.755 119.185 299.319 119.018 299.608C114.511 299.376 110.3 299.362 106.386 299.566ZM132.162 266.544C141.066 264.117 145.344 260.436 144.998 255.502C144.795 252.616 143.879 250.234 142.25 248.356C140.622 246.479 138.409 245.613 135.613 245.759C132.071 245.944 128.827 247.702 125.88 251.032C125.215 250.88 124.83 250.059 124.725 248.57C126.246 246.248 128.385 244.08 131.144 242.067C133.896 239.962 137.136 238.811 140.864 238.617C143.847 238.461 146.409 238.982 148.551 240.178C150.787 241.37 152.469 242.684 153.599 244.12C154.729 245.556 155.369 247.345 155.52 249.487C155.67 251.628 155.379 253.465 154.644 254.999C153.91 256.532 153.023 257.887 151.983 259.062C150.163 261.12 148.298 262.525 146.386 263.279C151.745 263.653 155.969 265.863 159.06 269.907C160.303 271.617 161.032 274.009 161.248 277.081C161.457 280.06 160.908 282.892 159.6 285.577C158.379 288.164 156.665 290.402 154.459 292.293C149.874 296.27 144.366 298.426 137.935 298.761C134.952 298.917 132.363 298.678 130.167 298.045C127.971 297.412 126.334 296.75 125.256 296.059C124.425 294.887 123.964 293.65 123.873 292.346C123.781 291.043 124.119 289.857 124.885 288.789C125.646 287.628 126.725 287.011 128.123 286.938C129.614 286.861 130.862 287.309 131.866 288.285C132.87 289.261 133.824 290.192 134.729 291.079C137.056 293.574 139.291 294.766 141.435 294.654C147.214 294.353 149.799 289.873 149.19 281.214C148.935 277.583 147.784 274.513 145.736 272.003C143.682 269.4 141.164 268.177 138.182 268.332C137.25 268.381 135.591 268.748 133.207 269.433C132.609 268.903 132.28 268.219 132.221 267.382L132.162 266.544ZM176.604 264.226C185.508 261.799 189.786 258.119 189.439 253.184C189.236 250.298 188.321 247.916 186.692 246.039C185.063 244.161 182.851 243.296 180.054 243.441C176.513 243.626 173.268 245.384 170.322 248.715C169.656 248.562 169.271 247.742 169.166 246.252C170.687 243.93 172.827 241.763 175.585 239.75C178.337 237.644 181.577 236.494 185.306 236.299C188.288 236.144 190.851 236.664 192.993 237.861C195.228 239.052 196.911 240.366 198.041 241.803C199.171 243.239 199.811 245.028 199.962 247.169C200.112 249.31 199.82 251.148 199.086 252.681C198.352 254.215 197.465 255.569 196.425 256.745C194.605 258.802 192.739 260.207 190.828 260.961C196.186 261.336 200.411 263.545 203.502 267.589C204.744 269.3 205.474 271.691 205.69 274.764C205.899 277.743 205.35 280.575 204.042 283.26C202.82 285.846 201.107 288.085 198.901 289.975C194.316 293.952 188.808 296.108 182.376 296.444C179.394 296.599 176.804 296.361 174.608 295.728C172.412 295.095 170.775 294.432 169.698 293.741C168.867 292.569 168.406 291.332 168.314 290.029C168.223 288.725 168.56 287.539 169.327 286.472C170.087 285.311 171.167 284.694 172.565 284.621C174.056 284.543 175.304 284.992 176.308 285.967C177.312 286.943 178.266 287.874 179.17 288.762C181.497 291.257 183.733 292.448 185.876 292.337C191.655 292.035 194.24 287.555 193.632 278.897C193.377 275.265 192.225 272.195 190.178 269.685C188.124 267.083 185.606 265.859 182.623 266.015C181.691 266.063 180.033 266.43 177.649 267.115C177.05 266.586 176.722 265.902 176.663 265.064L176.604 264.226ZM251.677 274.468C251.134 277.393 250.267 281.036 249.077 285.396C247.973 289.659 247.391 292.025 247.331 292.496L213.776 294.246C213.191 293.902 212.872 293.358 212.82 292.613C214.453 290.566 216.003 288.663 217.47 286.904C219.023 285.048 220.484 283.196 221.851 281.35C224.938 277.357 227.599 273.294 229.834 269.159C233.317 262.81 234.872 256.982 234.499 251.675C234.296 248.789 233.094 246.329 230.893 244.294C228.885 242.343 226.809 241.424 224.665 241.535C222.615 241.642 220.96 242.056 219.701 242.775C218.528 243.397 217.506 244.151 216.632 245.038C215.846 245.827 215.199 246.608 214.692 247.382C214.272 248.058 213.975 248.494 213.802 248.69C213.616 248.7 213.23 248.533 212.644 248.19C212.059 247.846 211.74 247.302 211.688 246.557C212.629 243.985 214.466 241.507 217.199 239.121C220.718 235.948 224.761 234.242 229.328 234.004C233.802 233.77 237.672 234.923 240.937 237.463C244.302 240.091 246.155 243.825 246.495 248.667C246.862 253.881 244.908 259.356 240.634 265.092C234.546 272.978 229.196 279.378 224.583 284.291L240.382 283.467C243.83 283.287 246.173 281.343 247.409 277.634C247.803 276.585 248.117 275.728 248.351 275.062C248.584 274.395 248.981 274.048 249.54 274.019C250.193 273.984 250.905 274.134 251.677 274.468ZM287.708 258.432C296.611 256.005 300.89 252.325 300.543 247.39C300.34 244.504 299.424 242.122 297.796 240.245C296.167 238.367 293.955 237.501 291.158 237.647C287.616 237.832 284.372 239.59 281.426 242.921C280.76 242.768 280.375 241.947 280.27 240.458C281.791 238.136 283.931 235.968 286.689 233.956C289.441 231.85 292.681 230.7 296.41 230.505C299.392 230.35 301.955 230.87 304.097 232.067C306.332 233.258 308.015 234.572 309.145 236.008C310.275 237.445 310.915 239.233 311.065 241.375C311.216 243.516 310.924 245.354 310.19 246.887C309.456 248.42 308.569 249.775 307.529 250.95C305.709 253.008 303.843 254.413 301.932 255.167C307.29 255.542 311.515 257.751 314.605 261.795C315.848 263.505 316.578 265.897 316.794 268.969C317.003 271.949 316.454 274.781 315.145 277.465C313.924 280.052 312.21 282.291 310.005 284.181C305.42 288.158 299.911 290.314 293.48 290.65C290.498 290.805 287.908 290.566 285.712 289.933C283.516 289.3 281.879 288.638 280.802 287.947C279.971 286.775 279.51 285.538 279.418 284.234C279.326 282.931 279.664 281.745 280.431 280.677C281.191 279.516 282.271 278.899 283.669 278.827C285.16 278.749 286.408 279.198 287.412 280.173C288.416 281.149 289.37 282.08 290.274 282.967C292.601 285.463 294.836 286.654 296.98 286.542C302.759 286.241 305.344 281.761 304.736 273.102C304.48 269.471 303.329 266.401 301.282 263.891C299.228 261.288 296.71 260.065 293.727 260.22C292.795 260.269 291.137 260.636 288.753 261.321C288.154 260.791 287.826 260.108 287.767 259.27L287.708 258.432ZM344.266 260.809C342.883 259.759 341.423 258.948 339.886 258.374C338.349 257.8 336.322 257.579 333.805 257.71C331.382 257.836 329.174 258.372 327.183 259.317C326.623 259.346 326.301 258.755 326.216 257.545L326.508 255.708C326.609 254.487 326.784 252.983 327.033 251.195C327.275 249.313 327.507 247.292 327.729 245.131C327.951 242.97 328.177 240.856 328.406 238.788C328.635 236.721 328.83 234.842 328.992 233.151C329.247 231.456 329.395 230.233 329.436 229.484L345.794 228.631C349.149 228.456 351.969 227.982 354.253 227.208C354.446 227.292 354.689 227.419 354.982 227.591C355.361 227.664 355.567 227.934 355.6 228.4C355.626 228.772 355.532 229.431 355.318 230.377C355.097 231.229 354.787 232.133 354.386 233.088C353.524 235.469 352.97 236.9 352.723 237.38C346.331 238.274 341.551 238.804 338.382 238.969L332.789 239.261L331.448 250.124C334.378 249.223 337.288 248.698 340.177 248.547C343.067 248.396 345.616 248.731 347.825 249.55C350.128 250.364 352.22 251.517 354.102 253.007C358.272 256.434 360.524 260.521 360.857 265.27C361.296 271.508 359.099 276.855 354.267 281.312C349.615 285.666 344.26 288.001 338.201 288.317C335.219 288.473 332.583 288.237 330.293 287.608C328.097 286.975 326.507 286.311 325.523 285.615C324.712 284.722 324.257 283.578 324.159 282.181C324.054 280.692 324.339 279.415 325.012 278.352C325.773 277.191 326.852 276.575 328.25 276.502C329.741 276.424 330.989 276.873 331.993 277.848C332.997 278.824 333.905 279.758 334.716 280.65C337.136 283.14 339.418 284.329 341.562 284.217C347.34 283.916 349.926 279.436 349.317 270.777C349.036 266.774 347.352 263.451 344.266 260.809ZM393.929 255.976C394.151 253.815 394.151 251.152 393.928 247.986C393.706 244.821 393.386 242.268 392.969 240.327C392.639 238.289 392.135 236.446 391.458 234.799C389.705 231.153 387.524 229.398 384.914 229.534C383.05 229.631 381.597 230.922 380.555 233.406C379.507 235.796 379.091 238.528 379.307 241.6C379.523 244.673 379.836 247.133 380.247 248.98C380.744 250.73 381.371 252.332 382.128 253.788C383.929 256.778 386.367 258.193 389.443 258.032C391.12 257.945 392.616 257.259 393.929 255.976ZM393.154 260.922C390.469 262.651 387.961 263.576 385.631 263.697C383.394 263.814 381.227 263.6 379.131 263.055C377.035 262.51 375.189 261.532 373.593 260.12C370.021 257.223 368.013 252.609 367.568 246.277C367.202 241.064 368.928 236.348 372.748 232.131C376.295 228.021 380.585 225.835 385.618 225.573C390.744 225.305 395.335 227.402 399.39 231.863C403.433 236.137 405.654 241.114 406.053 246.794C406.445 252.38 405.674 257.373 403.738 261.772C401.802 266.171 399.28 270.228 396.174 273.941C393.067 277.653 389.432 280.506 385.269 282.499C381.105 284.491 377.456 285.803 374.319 286.434C373.628 285.909 373.339 285.13 373.453 284.096C379.155 281.369 383.553 278.056 386.647 274.157C389.734 270.165 391.903 265.753 393.154 260.922ZM440.919 223.53L449.278 222.673C449.651 222.654 449.864 223.016 449.916 223.761C449.962 224.413 449.781 225.17 449.374 226.032C448.967 226.894 448.446 228.136 447.812 229.758L426.496 283.853C426.322 284.049 426.049 284.157 425.677 284.176L424.977 284.212C423.673 284.28 422.628 284.055 421.843 283.535C421.158 283.103 420.799 282.655 420.766 282.189C423.848 276.796 427.839 268.364 432.74 256.895C437.727 245.329 441.135 237.255 442.965 232.674L421.574 233.789C418.778 233.935 416.802 235.767 415.646 239.285C415.338 240.235 415.111 240.995 414.964 241.563C414.81 242.038 414.69 242.325 414.603 242.423C414.51 242.428 414.094 242.496 413.355 242.628C412.702 242.662 412.077 242.414 411.478 241.885C411.68 240.753 411.911 239.386 412.173 237.784C412.521 236.084 412.826 234.433 413.087 232.83C413.436 231.13 413.7 229.575 413.882 228.163C414.063 226.752 414.221 225.669 414.355 224.915L440.919 223.53ZM482.402 251.362C482.625 249.201 482.624 246.538 482.402 243.372C482.18 240.207 481.86 237.654 481.443 235.713C481.112 233.675 480.609 231.832 479.932 230.185C478.179 226.539 475.997 224.784 473.387 224.92C471.523 225.017 470.07 226.308 469.029 228.792C467.981 231.182 467.565 233.914 467.781 236.986C467.997 240.059 468.31 242.519 468.72 244.366C469.217 246.116 469.845 247.718 470.602 249.174C472.402 252.164 474.84 253.579 477.916 253.418C479.594 253.331 481.089 252.645 482.402 251.362ZM481.627 256.308C478.942 258.037 476.435 258.962 474.105 259.083C471.868 259.2 469.701 258.986 467.605 258.441C465.508 257.896 463.662 256.918 462.066 255.506C458.495 252.609 456.487 247.995 456.042 241.664C455.675 236.45 457.402 231.734 461.222 227.517C464.768 223.407 469.058 221.221 474.091 220.959C479.218 220.691 483.809 222.788 487.864 227.249C491.906 231.523 494.127 236.5 494.526 242.18C494.919 247.766 494.147 252.759 492.211 257.158C490.275 261.557 487.754 265.614 484.647 269.327C481.54 273.039 477.905 275.892 473.742 277.885C469.579 279.877 465.929 281.189 462.793 281.82C462.101 281.295 461.813 280.516 461.927 279.482C467.629 276.755 472.027 273.442 475.12 269.543C478.207 265.551 480.376 261.139 481.627 256.308ZM519.006 252.817C517.139 255.531 516.372 259.262 516.705 264.01C517.039 268.759 518.673 272.037 521.606 273.847C522.584 274.45 523.959 274.705 525.73 274.613C527.594 274.516 529.036 273.74 530.056 272.285C531.163 270.732 531.648 268.978 531.511 267.023C531.373 265.068 530.833 263.367 529.889 261.921C529.032 260.377 528.005 259.076 526.808 258.017C525.605 256.865 524.368 255.902 523.097 255.127C521.913 254.254 520.976 253.555 520.284 253.031L519.415 252.656C519.136 252.67 518.999 252.724 519.006 252.817ZM525.618 243.081L526.158 242.773C527.319 240.656 527.742 237.364 527.428 232.895C527.153 228.984 525.829 226.11 523.454 224.271C522.663 223.658 521.568 223.389 520.17 223.461C518.865 223.529 517.753 224.335 516.832 225.878C515.905 227.328 515.507 228.984 515.638 230.846C515.762 232.615 516.153 234.183 516.81 235.551C517.554 236.82 518.382 237.945 519.292 238.926C520.808 240.529 522.531 241.747 524.461 242.581C524.86 242.934 525.246 243.101 525.618 243.081ZM520.744 219.647C522.795 219.54 524.865 219.712 526.955 220.164C529.138 220.611 531.061 221.352 532.724 222.386C536.542 224.804 538.592 228.014 538.873 232.017C539.082 234.997 538.194 237.66 536.207 240.006C534.314 242.347 532.098 244.098 529.56 245.258C529.2 245.464 529.313 245.738 529.899 246.082C530.571 246.327 531.642 246.925 533.112 247.876C534.582 248.828 536.065 249.965 537.561 251.289C541.152 254.466 543.079 257.916 543.34 261.64C543.668 266.295 541.889 270.266 538.003 273.552C534.385 276.638 529.919 278.319 524.606 278.596C516.218 279.034 510.306 276.772 506.87 271.812C505.621 270.008 504.914 267.943 504.75 265.615C504.58 263.194 504.769 261.222 505.317 259.698C505.958 258.17 506.798 256.818 507.838 255.642C509.558 253.497 512.104 251.775 515.474 250.478C515.654 250.376 515.451 250.152 514.865 249.809C514.273 249.373 513.336 248.674 512.052 247.713C510.862 246.747 509.661 245.642 508.451 244.397C505.706 241.269 504.202 237.844 503.94 234.12C503.672 230.302 505.307 226.946 508.846 224.052C512.118 221.358 516.084 219.89 520.744 219.647Z"/><path fill="#DCA85A" d="M204.083 110.777C203.145 116.462 200.613 120.815 196.487 123.837C192.386 126.86 187.217 128.159 180.982 127.734C174.162 127.27 169.001 124.618 165.499 119.78C162.024 114.92 160.653 108.49 161.388 100.492L161.686 97.2462C162.155 92.1407 163.469 87.7045 165.629 83.9374C167.788 80.1703 170.632 77.3673 174.158 75.5282C177.712 73.6664 181.705 72.8866 186.138 73.1887C192.276 73.6069 197.07 75.5849 200.52 79.1226C203.969 82.6603 205.714 87.4151 205.754 93.3871L194.793 92.6401C194.84 89.1939 194.106 86.6485 192.59 85.004C191.101 83.3369 188.676 82.3888 185.314 82.1597C181.661 81.9107 178.8 83.0368 176.732 85.538C174.691 88.0165 173.393 92.0014 172.84 97.4925L172.472 101.504C171.945 107.242 172.424 111.494 173.91 114.262C175.421 117.032 178.051 118.544 181.802 118.8C185.188 119.03 187.779 118.436 189.576 117.018C191.4 115.576 192.582 113.247 193.123 110.03L204.083 110.777ZM231.871 130.468C231.471 129.487 231.226 128.284 231.136 126.859C228.317 129.529 224.862 130.724 220.77 130.446C216.897 130.182 213.785 128.844 211.432 126.433C209.105 124.024 208.097 121.118 208.41 117.714C208.794 113.532 210.635 110.429 213.934 108.403C217.257 106.378 221.855 105.554 227.727 105.93L232.587 106.261L232.794 104C232.962 102.177 232.621 100.686 231.771 99.5268C230.946 98.3697 229.523 97.7223 227.501 97.5845C225.723 97.4633 224.283 97.7933 223.182 98.5745C222.105 99.3574 221.499 100.49 221.363 101.973L210.804 101.254C211.013 98.9685 211.914 96.9015 213.505 95.0528C215.097 93.2042 217.234 91.8208 219.916 90.9027C222.601 89.9603 225.551 89.5987 228.766 89.8178C233.637 90.1497 237.385 91.6406 240.01 94.2902C242.66 96.9173 243.783 100.443 243.376 104.868L241.806 121.971C241.486 125.717 241.75 128.585 242.596 130.575L242.54 131.195L231.871 130.468ZM223.812 122.543C225.371 122.649 226.839 122.407 228.217 121.816C229.597 121.2 230.657 120.331 231.398 119.207L232.021 112.424L228.075 112.155C222.789 111.795 219.808 113.427 219.132 117.05L219.039 117.668C218.918 118.98 219.282 120.094 220.129 121.008C220.977 121.922 222.204 122.434 223.812 122.543ZM260.223 132.4L249.628 131.678L254.772 75.6639L265.367 76.3859L260.223 132.4ZM280.099 133.755L269.503 133.033L274.647 77.0183L285.243 77.7404L280.099 133.755ZM353.298 85.3136L350.086 120.286C349.553 126.097 347.304 130.567 343.34 133.697C339.4 136.829 334.276 138.18 327.968 137.751C321.756 137.327 316.975 135.35 313.623 131.819C310.27 128.288 308.821 123.651 309.275 117.909L312.523 82.5351L323.484 83.282L320.266 118.327C319.947 121.804 320.542 124.401 322.051 126.118C323.586 127.813 325.827 128.761 328.775 128.962C334.937 129.382 338.364 126.362 339.055 119.901L342.301 84.5642L353.298 85.3136ZM379.127 129.531C379.246 128.242 378.693 127.189 377.469 126.372C376.271 125.532 374.287 124.724 371.515 123.948C362.294 121.338 357.959 117.031 358.51 111.026C358.832 107.525 360.549 104.706 363.662 102.57C366.801 100.411 370.722 99.4913 375.423 99.8116C380.44 100.154 384.339 101.606 387.118 104.168C389.922 106.732 391.151 109.898 390.805 113.667L380.246 112.947C380.384 111.44 380.011 110.167 379.126 109.128C378.243 108.065 376.767 107.463 374.696 107.321C372.918 107.2 371.505 107.508 370.457 108.244C369.409 108.979 368.828 109.967 368.714 111.207C368.607 112.374 369.068 113.36 370.097 114.164C371.153 114.945 372.972 115.693 375.553 116.407C378.137 117.097 380.3 117.831 382.042 118.611C387.432 121.033 389.896 124.76 389.434 129.793C389.104 133.391 387.289 136.203 383.99 138.229C380.694 140.23 376.598 141.064 371.702 140.731C368.389 140.505 365.495 139.721 363.021 138.378C360.572 137.012 358.711 135.259 357.438 133.117C356.166 130.951 355.639 128.676 355.858 126.294L365.869 126.976C365.795 128.855 366.357 130.336 367.557 131.421C368.756 132.506 370.44 133.122 372.607 133.27C374.629 133.408 376.186 133.135 377.278 132.451C378.397 131.744 379.013 130.771 379.127 129.531Z"/></g><defs><filter id="filter0_d" width="588.528" height="356.007" x=".766" y=".557" color-interpolation-filters="sRGB" filterUnits="userSpaceOnUse"><feFlood flood-opacity="0" result="BackgroundImageFix"/><feColorMatrix in="SourceAlpha" result="hardAlpha" type="matrix" values="0 0 0 0 0 0 0 0 0 0 0 0 0 0 0 0 0 0 127 0"/><feOffset dy="3"/><feGaussianBlur stdDeviation="5"/><feComposite in2="hardAlpha" operator="out"/><feColorMatrix type="matrix" values="0 0 0 0 0 0 0 0 0 0 0 0 0 0 0 0 0 0 1 0"/><feBlend in2="BackgroundImageFix" mode="normal" result="effect1_dropShadow"/><feBlend in="SourceGraphic" in2="effect1_dropShadow" mode="normal" result="shape"/></filter></defs></svg>