<svg xmlns="http://www.w3.org/2000/svg" width="570" height="460" fill="none" viewBox="0 0 570 460"><g filter="url(#filter0_d)"><rect width="499.171" height="140.245" fill="#fff" rx="8.397" transform="matrix(0.997368 0.0725012 -0.0908595 0.995864 34.8301 19.6504)"/><path fill="#DCA85A" d="M148.829 111.897C147.963 117.963 145.371 122.566 141.054 125.708C136.763 128.852 131.298 130.126 124.658 129.53C117.395 128.879 111.846 125.924 108.011 120.665C104.204 115.383 102.598 108.468 103.194 99.9213L103.436 96.4531C103.817 90.9976 105.112 86.2777 107.321 82.2933C109.53 78.309 112.489 75.3721 116.196 73.4827C119.931 71.5697 124.159 70.825 128.88 71.2485C135.416 71.8349 140.559 74.0608 144.309 77.9263C148.058 81.7918 150.023 86.9218 150.204 93.3164L138.532 92.2693C138.502 88.5807 137.662 85.839 136.013 84.0441C134.391 82.2255 131.79 81.1557 128.211 80.8346C124.32 80.4855 121.305 81.6266 119.164 84.2577C117.05 86.8652 115.763 91.1022 115.302 96.9687L115.003 101.255C114.575 107.386 115.183 111.95 116.827 114.947C118.497 117.946 121.329 119.625 125.324 119.983C128.929 120.307 131.671 119.729 133.549 118.251C135.454 116.749 136.657 114.282 137.158 110.85L148.829 111.897ZM201.28 135.62L189.608 134.573L191.304 110.257L168.544 108.215L166.848 132.531L155.176 131.484L159.133 74.747L170.805 75.7942L169.201 98.7852L191.962 100.827L193.565 77.8361L205.237 78.8833L201.28 135.62ZM258.344 83.6479L255.738 121.018C255.304 127.227 253.017 131.962 248.874 135.224C244.758 138.489 239.34 139.819 232.623 139.217C226.009 138.623 220.878 136.399 217.232 132.542C213.587 128.686 211.938 123.689 212.288 117.551L214.925 79.7525L226.597 80.7996L223.985 118.248C223.725 121.963 224.418 124.757 226.062 126.629C227.734 128.479 230.139 129.544 233.278 129.825C239.84 130.414 243.414 127.258 244 120.357L246.633 82.5973L258.344 83.6479ZM276.284 132.9L301.068 135.123L300.413 144.514L263.958 141.244L267.915 84.5066L279.587 85.5538L276.284 132.9ZM319.47 136.774L344.254 138.998L343.599 148.389L307.143 145.118L311.101 88.3812L322.773 89.4283L319.47 136.774ZM383.904 140.242L363.439 138.406L358.733 149.747L346.322 148.633L371.367 93.788L382.183 94.7584L399.429 153.398L387.018 152.284L383.904 140.242ZM367.251 129.219L381.413 130.49L375.774 108.613L367.251 129.219ZM450.824 158.009L439.152 156.962L440.848 132.646L418.088 130.604L416.392 154.92L404.72 153.873L408.678 97.1355L420.35 98.1827L418.746 121.174L441.506 123.216L443.11 100.225L454.782 101.272L450.824 158.009Z"/><rect width="499.306" height="140.198" fill="#DCA85A" rx="8.397" transform="matrix(0.998432 -0.0559863 0.0702056 0.997533 22.4717 196.624)"/><path fill="#fff" d="M175.144 269.867C175.028 276.009 173.025 280.975 169.133 284.766C165.268 288.554 160.009 290.677 153.358 291.134C146.084 291.633 140.225 289.582 135.781 284.981C131.362 280.351 128.924 273.759 128.467 265.203L128.282 261.732C127.99 256.271 128.695 251.394 130.395 247.101C132.096 242.808 134.666 239.434 138.108 236.98C141.574 234.497 145.671 233.093 150.399 232.769C156.946 232.319 162.314 233.712 166.503 236.948C170.691 240.184 173.266 244.953 174.229 251.256L162.537 252.058C162.056 248.411 160.888 245.829 159.034 244.312C157.204 242.768 154.497 242.118 150.912 242.365C147.014 242.632 144.167 244.237 142.368 247.179C140.594 250.094 139.838 254.491 140.1 260.372L140.329 264.663C140.656 270.8 141.818 275.222 143.814 277.93C145.836 280.636 148.847 281.852 152.848 281.577C156.46 281.329 159.105 280.325 160.784 278.566C162.488 276.779 163.377 274.147 163.453 270.67L175.144 269.867ZM230.011 285.088L218.32 285.891L217.021 261.55L194.223 263.116L195.522 287.456L183.831 288.259L180.799 231.465L192.49 230.662L193.719 253.676L216.517 252.111L215.288 229.096L226.98 228.294L230.011 285.088ZM252.692 283.531L241.001 284.333L237.969 227.539L249.66 226.736L252.692 283.531ZM275.81 224.941L292.584 265.132L304.882 222.945L320.237 221.891L323.268 278.685L311.538 279.49L310.709 263.965L310.448 237.087L297.392 280.462L289.364 281.013L271.83 239.778L274.428 266.457L275.256 281.981L263.565 282.784L260.533 225.99L275.81 224.941ZM372.496 227.816L355.115 229.009L357.64 276.325L345.949 277.128L343.423 229.812L326.276 230.989L325.77 221.511L371.99 218.337L372.496 227.816ZM408.457 261.091L387.959 262.498L384.686 274.468L372.255 275.321L390.345 217.077L401.179 216.333L425.45 271.669L413.018 272.523L408.457 261.091ZM390.609 252.803L404.795 251.829L396.528 231.06L390.609 252.803Z"/><path fill="#fff" d="M158.037 391.011C156.556 393.198 154.915 394.884 153.115 396.069C151.315 397.277 149.344 397.881 147.202 397.881C145.037 397.881 143.112 397.357 141.426 396.309C139.74 395.283 138.315 393.825 137.153 391.934C136.014 390.02 135.137 387.729 134.521 385.063C133.929 382.375 133.633 379.39 133.633 376.108C133.633 373.784 133.872 371.403 134.351 368.965C134.829 366.527 135.524 364.168 136.436 361.89C137.37 359.588 138.498 357.424 139.819 355.396C141.141 353.345 142.645 351.567 144.331 350.063C146.017 348.537 147.874 347.329 149.902 346.44C151.93 345.552 154.106 345.107 156.431 345.107C157.684 345.107 158.857 345.312 159.951 345.723C161.045 346.11 161.979 346.68 162.754 347.432C163.551 348.184 164.178 349.095 164.634 350.166C165.09 351.237 165.317 352.445 165.317 353.789C165.317 355.065 165.101 356.296 164.668 357.48C164.235 358.665 163.643 359.782 162.891 360.83C162.161 361.878 161.307 362.835 160.327 363.701C159.347 364.567 158.322 365.319 157.251 365.957C156.18 366.572 155.086 367.051 153.97 367.393C152.853 367.734 151.782 367.905 150.757 367.905C149.914 367.905 149.185 367.643 148.569 367.119C147.977 366.572 147.681 365.718 147.681 364.556C147.681 364.305 147.692 364.032 147.715 363.735C147.76 363.439 147.817 363.166 147.886 362.915C147.954 362.664 148.034 362.459 148.125 362.3C148.216 362.118 148.33 362.026 148.467 362.026C148.581 362.026 148.683 362.072 148.774 362.163C148.888 362.231 149.025 362.311 149.185 362.402C149.367 362.471 149.606 362.55 149.902 362.642C150.199 362.71 150.609 362.744 151.133 362.744C152.021 362.744 152.967 362.505 153.97 362.026C154.995 361.548 155.941 360.91 156.807 360.112C157.673 359.315 158.39 358.403 158.96 357.378C159.53 356.33 159.814 355.247 159.814 354.131C159.814 353.721 159.735 353.288 159.575 352.832C159.438 352.376 159.199 351.955 158.857 351.567C158.538 351.18 158.105 350.861 157.559 350.61C157.012 350.337 156.34 350.2 155.542 350.2C154.084 350.2 152.671 350.553 151.304 351.26C149.937 351.966 148.66 352.946 147.476 354.199C146.291 355.43 145.197 356.877 144.194 358.54C143.215 360.203 142.371 361.992 141.665 363.906C140.959 365.82 140.412 367.814 140.024 369.888C139.637 371.961 139.443 374.012 139.443 376.04C139.443 378.569 139.637 380.848 140.024 382.876C140.435 384.881 140.993 386.59 141.699 388.003C142.406 389.416 143.237 390.509 144.194 391.284C145.174 392.036 146.222 392.412 147.339 392.412C148.524 392.412 149.618 392.173 150.62 391.694C151.623 391.193 152.523 390.532 153.32 389.712C154.118 388.892 154.813 387.946 155.405 386.875C155.998 385.804 156.488 384.699 156.875 383.56C157.285 382.42 157.593 381.292 157.798 380.176C158.003 379.036 158.105 377.988 158.105 377.031C158.105 376.667 158.083 376.257 158.037 375.801C157.992 375.322 157.969 374.958 157.969 374.707C157.969 374.365 158.026 374.103 158.14 373.921C158.276 373.739 158.447 373.602 158.652 373.511C158.857 373.42 159.097 373.363 159.37 373.34C159.644 373.317 159.928 373.306 160.225 373.306C160.544 373.306 160.908 373.374 161.318 373.511C161.729 373.647 162.116 373.841 162.48 374.092C162.868 374.32 163.187 374.593 163.438 374.912C163.711 375.231 163.848 375.584 163.848 375.972C163.665 377.863 163.551 379.663 163.506 381.372C163.46 383.058 163.438 384.779 163.438 386.533C163.438 388.174 163.449 389.883 163.472 391.66C163.494 393.438 163.506 395.397 163.506 397.539C164.167 397.425 164.805 397.345 165.42 397.3C166.058 397.254 166.662 397.209 167.231 397.163C168.052 397.118 168.576 397.368 168.804 397.915C169.054 398.485 169.089 399.123 168.906 399.829C168.747 400.535 168.428 401.185 167.949 401.777C167.471 402.37 166.924 402.677 166.309 402.7C165.785 402.7 165.283 402.712 164.805 402.734C164.349 402.757 163.87 402.791 163.369 402.837C163.301 404.159 163.198 405.492 163.062 406.836C162.925 408.18 162.697 409.479 162.378 410.732C162.082 412.008 161.683 413.193 161.182 414.287C160.703 415.404 160.099 416.372 159.37 417.192C158.641 418.013 157.764 418.662 156.738 419.141C155.713 419.619 154.517 419.858 153.149 419.858C151.965 419.858 150.882 419.642 149.902 419.209C148.945 418.799 148.125 418.218 147.441 417.466C146.758 416.737 146.234 415.871 145.869 414.868C145.505 413.866 145.322 412.772 145.322 411.587C145.322 409.81 145.687 408.226 146.416 406.836C147.145 405.469 148.102 404.261 149.287 403.213C150.495 402.165 151.873 401.276 153.423 400.547C154.972 399.818 156.556 399.202 158.174 398.701V398.018C158.174 396.514 158.151 395.181 158.105 394.019C158.06 392.856 158.037 391.854 158.037 391.011ZM153.286 414.458C154.061 414.458 154.722 414.173 155.269 413.604C155.838 413.034 156.305 412.259 156.67 411.279C157.035 410.299 157.319 409.172 157.524 407.896C157.729 406.642 157.878 405.309 157.969 403.896C155.645 404.626 153.856 405.628 152.603 406.904C151.372 408.18 150.757 409.696 150.757 411.45C150.757 412.521 150.996 413.285 151.475 413.74C151.976 414.219 152.58 414.458 153.286 414.458ZM169.658 351.943C169.658 351.442 169.613 351.043 169.521 350.747C169.453 350.451 169.373 350.223 169.282 350.063C169.214 349.881 169.134 349.744 169.043 349.653C168.975 349.539 168.94 349.425 168.94 349.312C168.94 349.175 169.009 349.061 169.146 348.97C169.282 348.879 169.465 348.799 169.692 348.73C169.92 348.662 170.16 348.617 170.41 348.594C170.684 348.548 170.946 348.525 171.196 348.525C172.358 348.525 173.27 348.833 173.931 349.448C174.614 350.041 174.956 350.758 174.956 351.602V374.57C175.435 373.59 175.947 372.679 176.494 371.836C177.064 370.993 177.668 370.264 178.306 369.648C178.966 369.01 179.661 368.521 180.391 368.179C181.143 367.814 181.951 367.632 182.817 367.632C183.979 367.632 184.937 367.848 185.688 368.281C186.44 368.714 187.033 369.272 187.466 369.956C187.899 370.64 188.195 371.403 188.354 372.246C188.537 373.089 188.628 373.91 188.628 374.707V389.199C188.628 389.359 188.639 389.621 188.662 389.985C188.685 390.327 188.753 390.68 188.867 391.045C188.981 391.41 189.152 391.729 189.38 392.002C189.631 392.275 189.984 392.412 190.439 392.412C191.146 392.412 191.75 392.161 192.251 391.66C192.775 391.159 193.219 390.532 193.584 389.78C193.971 389.028 194.279 388.219 194.507 387.354C194.757 386.465 194.963 385.633 195.122 384.858C195.259 384.152 195.464 383.639 195.737 383.32C196.034 383.001 196.341 382.83 196.66 382.808C197.002 382.762 197.344 382.842 197.686 383.047C198.027 383.252 198.324 383.525 198.574 383.867C198.825 384.186 199.007 384.551 199.121 384.961C199.258 385.371 199.281 385.758 199.189 386.123C198.87 387.285 198.449 388.504 197.925 389.78C197.424 391.056 196.774 392.23 195.977 393.301C195.179 394.372 194.222 395.26 193.105 395.967C191.989 396.673 190.679 397.026 189.175 397.026C188.241 397.026 187.409 396.844 186.68 396.479C185.973 396.138 185.358 395.671 184.834 395.078C184.333 394.486 183.945 393.791 183.672 392.993C183.421 392.196 183.296 391.353 183.296 390.464V376.245C183.296 375.698 183.285 375.186 183.262 374.707C183.239 374.229 183.171 373.807 183.057 373.442C182.965 373.078 182.817 372.793 182.612 372.588C182.43 372.36 182.168 372.246 181.826 372.246C181.325 372.246 180.71 372.588 179.98 373.271C179.251 373.955 178.534 374.844 177.827 375.938C177.121 377.031 176.494 378.273 175.947 379.663C175.423 381.03 175.093 382.409 174.956 383.799V394.019C174.956 394.36 174.945 394.714 174.922 395.078C174.922 395.42 174.854 395.728 174.717 396.001C174.603 396.297 174.409 396.536 174.136 396.719C173.885 396.924 173.509 397.026 173.008 397.026C172.666 397.026 172.29 396.981 171.88 396.89C171.493 396.821 171.128 396.673 170.786 396.445C170.467 396.24 170.194 395.933 169.966 395.522C169.761 395.135 169.658 394.611 169.658 393.95V351.943ZM215.22 392.412C215.926 392.412 216.53 392.161 217.031 391.66C217.555 391.159 218 390.532 218.364 389.78C218.752 389.028 219.059 388.219 219.287 387.354C219.538 386.465 219.743 385.633 219.902 384.858C220.062 384.129 220.29 383.605 220.586 383.286C220.905 382.944 221.247 382.773 221.611 382.773C221.885 382.773 222.158 382.865 222.432 383.047C222.728 383.206 222.99 383.423 223.218 383.696C223.468 383.97 223.662 384.277 223.799 384.619C223.958 384.961 224.038 385.303 224.038 385.645C224.038 385.69 224.038 385.747 224.038 385.815C224.038 385.884 224.015 385.986 223.97 386.123C223.674 387.285 223.263 388.504 222.739 389.78C222.238 391.056 221.589 392.23 220.791 393.301C219.993 394.372 219.025 395.26 217.886 395.967C216.769 396.673 215.459 397.026 213.955 397.026C212.725 397.026 211.654 396.764 210.742 396.24C209.831 395.716 209.113 395.021 208.589 394.155C207.882 394.953 207.028 395.625 206.025 396.172C205.046 396.742 203.895 397.026 202.573 397.026C201.206 397.026 199.998 396.753 198.95 396.206C197.925 395.659 197.059 394.919 196.353 393.984C195.646 393.027 195.111 391.911 194.746 390.635C194.404 389.336 194.233 387.946 194.233 386.465C194.233 383.548 194.701 380.928 195.635 378.604C196.569 376.279 197.811 374.308 199.36 372.69C200.91 371.05 202.676 369.797 204.658 368.931C206.663 368.065 208.737 367.632 210.879 367.632C211.836 367.632 212.611 367.894 213.203 368.418C213.796 368.942 214.092 369.66 214.092 370.571C214.092 371.164 214.023 371.585 213.887 371.836C213.773 372.064 213.545 372.178 213.203 372.178C212.884 372.178 212.554 372.155 212.212 372.109C211.87 372.064 211.517 372.041 211.152 372.041C209.831 372.041 208.486 372.337 207.119 372.93C205.752 373.499 204.51 374.388 203.394 375.596C202.3 376.781 201.4 378.296 200.693 380.142C199.987 381.965 199.634 384.141 199.634 386.67C199.634 388.516 199.987 389.94 200.693 390.942C201.4 391.922 202.368 392.412 203.599 392.412C204.556 392.412 205.353 392.059 205.991 391.353C206.629 390.623 207.142 389.769 207.529 388.789V377.988C207.529 377.646 207.507 377.362 207.461 377.134C207.438 376.906 207.404 376.712 207.358 376.553C207.336 376.393 207.313 376.257 207.29 376.143C207.267 376.006 207.256 375.881 207.256 375.767C207.256 375.402 207.427 375.117 207.769 374.912C208.133 374.684 208.566 374.57 209.067 374.57C210.229 374.57 211.152 374.878 211.836 375.493C212.52 376.086 212.861 376.803 212.861 377.646V389.199C212.861 389.587 212.907 389.974 212.998 390.361C213.089 390.726 213.226 391.068 213.408 391.387C213.59 391.683 213.83 391.934 214.126 392.139C214.445 392.321 214.81 392.412 215.22 392.412ZM235.488 397.026C234.668 397.026 233.825 396.901 232.959 396.65C232.116 396.4 231.341 395.967 230.635 395.352C229.951 394.736 229.382 393.927 228.926 392.925C228.493 391.899 228.276 390.612 228.276 389.062C228.276 386.807 228.573 384.425 229.165 381.919C229.78 379.39 230.658 376.61 231.797 373.579H226.465H225.679C225.656 374.263 225.61 375.129 225.542 376.177C225.496 377.225 225.405 378.341 225.269 379.526C225.132 380.711 224.95 381.908 224.722 383.115C224.517 384.323 224.255 385.439 223.936 386.465C223.708 387.194 223.343 387.616 222.842 387.729C222.363 387.843 221.885 387.764 221.406 387.49C220.928 387.194 220.54 386.772 220.244 386.226C219.948 385.679 219.88 385.109 220.039 384.517C220.221 383.81 220.381 382.956 220.518 381.953C220.654 380.928 220.757 379.857 220.825 378.74C220.916 377.601 220.985 376.473 221.03 375.356C221.076 374.217 221.11 373.203 221.133 372.314C220.267 371.836 219.549 371.232 218.979 370.503C218.41 369.751 218.125 368.862 218.125 367.837C218.125 367.358 218.216 366.925 218.398 366.538C218.604 366.128 218.866 365.786 219.185 365.513C219.504 365.216 219.88 365 220.312 364.863C220.745 364.704 221.19 364.624 221.646 364.624C222.056 364.624 222.477 364.681 222.91 364.795C223.366 364.909 223.787 365.114 224.175 365.41C224.585 365.706 224.95 366.094 225.269 366.572C225.588 367.051 225.85 367.643 226.055 368.35C226.624 368.418 227.103 368.475 227.49 368.521C227.9 368.543 228.242 368.566 228.516 368.589C228.789 368.612 229.017 368.623 229.199 368.623C229.382 368.623 229.564 368.623 229.746 368.623H233.403C233.608 368.623 233.905 368.748 234.292 368.999C234.702 369.25 235.101 369.58 235.488 369.99C235.876 370.378 236.195 370.799 236.445 371.255C236.719 371.711 236.821 372.144 236.753 372.554C236.753 372.69 236.673 373.021 236.514 373.545C236.354 374.069 236.16 374.73 235.933 375.527C235.705 376.325 235.454 377.248 235.181 378.296C234.907 379.321 234.657 380.404 234.429 381.543C234.201 382.682 234.007 383.867 233.848 385.098C233.688 386.305 233.608 387.49 233.608 388.652C233.608 389.131 233.665 389.598 233.779 390.054C233.893 390.509 234.064 390.92 234.292 391.284C234.52 391.626 234.805 391.899 235.146 392.104C235.511 392.31 235.933 392.412 236.411 392.412C237.209 392.412 237.892 392.161 238.462 391.66C239.032 391.159 239.51 390.532 239.897 389.78C240.285 389.028 240.592 388.219 240.82 387.354C241.071 386.465 241.276 385.633 241.436 384.858C241.572 384.129 241.8 383.605 242.119 383.286C242.438 382.944 242.769 382.773 243.11 382.773C243.384 382.773 243.669 382.865 243.965 383.047C244.261 383.206 244.523 383.423 244.751 383.696C245.002 383.97 245.195 384.277 245.332 384.619C245.492 384.961 245.571 385.303 245.571 385.645C245.571 385.758 245.56 385.85 245.537 385.918C245.514 385.986 245.503 386.055 245.503 386.123C245.184 387.285 244.762 388.504 244.238 389.78C243.737 391.056 243.088 392.23 242.29 393.301C241.493 394.372 240.535 395.26 239.419 395.967C238.302 396.673 236.992 397.026 235.488 397.026ZM261.191 385.474C261.009 386.203 260.667 386.659 260.166 386.841C259.665 387 259.163 386.978 258.662 386.772C258.184 386.567 257.773 386.214 257.432 385.713C257.113 385.212 257.021 384.665 257.158 384.072C257.5 382.523 257.99 380.814 258.628 378.945C259.289 377.054 259.938 375.174 260.576 373.306C260.234 372.782 259.961 372.257 259.756 371.733C259.551 371.187 259.448 370.617 259.448 370.024C259.448 369.432 259.665 368.817 260.098 368.179C260.553 367.518 261.089 366.914 261.704 366.367C262.342 365.82 262.992 365.376 263.652 365.034C264.336 364.67 264.917 364.487 265.396 364.487C266.239 364.487 266.865 364.772 267.275 365.342C267.708 365.911 267.925 366.675 267.925 367.632C267.925 368.156 267.834 368.68 267.651 369.204C267.492 369.705 267.31 370.184 267.104 370.64C266.899 371.073 266.706 371.449 266.523 371.768C266.364 372.087 266.273 372.292 266.25 372.383C267.07 373.841 267.925 375.129 268.813 376.245C269.702 377.362 270.511 378.467 271.24 379.561C271.992 380.654 272.607 381.816 273.086 383.047C273.564 384.277 273.804 385.724 273.804 387.388C273.804 387.798 273.77 388.219 273.701 388.652C273.656 389.085 273.576 389.495 273.462 389.883C274.282 389.723 275 389.473 275.615 389.131C276.253 388.789 276.8 388.402 277.256 387.969C277.734 387.513 278.122 387.023 278.418 386.499C278.737 385.975 278.999 385.428 279.204 384.858C279.455 384.198 279.705 383.719 279.956 383.423C280.207 383.127 280.492 382.979 280.811 382.979C281.107 382.979 281.403 383.081 281.699 383.286C282.018 383.468 282.292 383.708 282.52 384.004C282.77 384.3 282.964 384.608 283.101 384.927C283.26 385.246 283.34 385.531 283.34 385.781C283.34 386.123 283.249 386.533 283.066 387.012C282.884 387.49 282.633 387.98 282.314 388.481C282.018 388.983 281.676 389.473 281.289 389.951C280.902 390.407 280.503 390.806 280.093 391.147C278.999 392.036 277.712 392.788 276.23 393.403C274.749 393.996 272.915 394.372 270.728 394.531C269.884 395.26 268.882 395.853 267.72 396.309C266.58 396.787 265.293 397.026 263.857 397.026C263.128 397.026 262.376 396.935 261.602 396.753C260.85 396.571 260.12 396.331 259.414 396.035C258.73 395.762 258.104 395.454 257.534 395.112C256.965 394.771 256.509 394.429 256.167 394.087C255.301 393.267 254.743 392.446 254.492 391.626C254.242 390.783 254.185 390.031 254.321 389.37C254.435 388.709 254.674 388.174 255.039 387.764C255.404 387.331 255.78 387.114 256.167 387.114C256.395 387.114 256.748 387.217 257.227 387.422C257.728 387.604 258.298 387.855 258.936 388.174C259.574 388.47 260.269 388.789 261.021 389.131C261.772 389.473 262.524 389.803 263.276 390.122C264.028 390.418 264.757 390.669 265.464 390.874C266.193 391.056 266.854 391.147 267.446 391.147C267.834 390.692 268.187 390.088 268.506 389.336C268.825 388.584 268.984 387.764 268.984 386.875C268.984 385.781 268.836 384.767 268.54 383.833C268.244 382.899 267.856 382.033 267.378 381.235C266.899 380.438 266.353 379.697 265.737 379.014C265.145 378.307 264.541 377.646 263.926 377.031C263.379 378.376 262.9 379.709 262.49 381.03C262.08 382.329 261.647 383.81 261.191 385.474ZM299.37 392.412C300.076 392.412 300.68 392.161 301.182 391.66C301.706 391.159 302.15 390.532 302.515 389.78C302.902 389.028 303.21 388.219 303.438 387.354C303.688 386.465 303.893 385.633 304.053 384.858C304.212 384.129 304.44 383.605 304.736 383.286C305.055 382.944 305.397 382.773 305.762 382.773C306.035 382.773 306.309 382.865 306.582 383.047C306.878 383.206 307.14 383.423 307.368 383.696C307.619 383.97 307.812 384.277 307.949 384.619C308.109 384.961 308.188 385.303 308.188 385.645C308.188 385.69 308.188 385.747 308.188 385.815C308.188 385.884 308.166 385.986 308.12 386.123C307.824 387.285 307.414 388.504 306.89 389.78C306.388 391.056 305.739 392.23 304.941 393.301C304.144 394.372 303.175 395.26 302.036 395.967C300.92 396.673 299.609 397.026 298.105 397.026C296.875 397.026 295.804 396.764 294.893 396.24C293.981 395.716 293.263 395.021 292.739 394.155C292.033 394.953 291.178 395.625 290.176 396.172C289.196 396.742 288.045 397.026 286.724 397.026C285.356 397.026 284.149 396.753 283.101 396.206C282.075 395.659 281.209 394.919 280.503 393.984C279.797 393.027 279.261 391.911 278.896 390.635C278.555 389.336 278.384 387.946 278.384 386.465C278.384 383.548 278.851 380.928 279.785 378.604C280.719 376.279 281.961 374.308 283.511 372.69C285.06 371.05 286.826 369.797 288.809 368.931C290.814 368.065 292.887 367.632 295.029 367.632C295.986 367.632 296.761 367.894 297.354 368.418C297.946 368.942 298.242 369.66 298.242 370.571C298.242 371.164 298.174 371.585 298.037 371.836C297.923 372.064 297.695 372.178 297.354 372.178C297.035 372.178 296.704 372.155 296.362 372.109C296.021 372.064 295.667 372.041 295.303 372.041C293.981 372.041 292.637 372.337 291.27 372.93C289.902 373.499 288.66 374.388 287.544 375.596C286.45 376.781 285.55 378.296 284.844 380.142C284.137 381.965 283.784 384.141 283.784 386.67C283.784 388.516 284.137 389.94 284.844 390.942C285.55 391.922 286.519 392.412 287.749 392.412C288.706 392.412 289.504 392.059 290.142 391.353C290.78 390.623 291.292 389.769 291.68 388.789V377.988C291.68 377.646 291.657 377.362 291.611 377.134C291.589 376.906 291.554 376.712 291.509 376.553C291.486 376.393 291.463 376.257 291.44 376.143C291.418 376.006 291.406 375.881 291.406 375.767C291.406 375.402 291.577 375.117 291.919 374.912C292.284 374.684 292.716 374.57 293.218 374.57C294.38 374.57 295.303 374.878 295.986 375.493C296.67 376.086 297.012 376.803 297.012 377.646V389.199C297.012 389.587 297.057 389.974 297.148 390.361C297.24 390.726 297.376 391.068 297.559 391.387C297.741 391.683 297.98 391.934 298.276 392.139C298.595 392.321 298.96 392.412 299.37 392.412ZM331.533 397.607C330.052 397.607 328.822 397.437 327.842 397.095C326.862 396.776 326.087 396.411 325.518 396.001C324.948 395.591 324.549 395.203 324.321 394.839C324.093 394.451 323.979 394.201 323.979 394.087C323.979 393.677 324.071 393.244 324.253 392.788C324.435 392.31 324.663 391.877 324.937 391.489C325.21 391.079 325.506 390.737 325.825 390.464C326.144 390.19 326.429 390.054 326.68 390.054C326.999 390.054 327.261 390.259 327.466 390.669C327.511 390.715 327.625 390.828 327.808 391.011C327.99 391.193 328.241 391.387 328.56 391.592C328.901 391.774 329.312 391.945 329.79 392.104C330.291 392.264 330.872 392.344 331.533 392.344C332.969 392.344 334.142 391.911 335.054 391.045C335.965 390.156 336.421 388.96 336.421 387.456C336.421 386.408 336.17 385.474 335.669 384.653C335.19 383.833 334.552 383.07 333.755 382.363C332.957 381.657 332.046 380.973 331.021 380.312C329.995 379.629 328.947 378.923 327.876 378.193C326.805 377.464 325.757 376.678 324.731 375.835C323.706 374.992 322.795 374.023 321.997 372.93C321.2 371.836 320.55 370.605 320.049 369.238C319.57 367.848 319.331 366.265 319.331 364.487C319.331 362.961 319.593 361.423 320.117 359.873C320.641 358.324 321.359 356.854 322.271 355.464C323.205 354.051 324.299 352.741 325.552 351.533C326.805 350.303 328.161 349.243 329.619 348.354C331.077 347.443 332.593 346.737 334.165 346.235C335.76 345.711 337.355 345.449 338.95 345.449C340.317 345.449 341.548 345.666 342.642 346.099C343.735 346.532 344.658 347.147 345.41 347.944C346.162 348.719 346.743 349.665 347.153 350.781C347.563 351.875 347.769 353.105 347.769 354.473C347.769 355.771 347.541 357.048 347.085 358.301C346.629 359.554 346.025 360.739 345.273 361.855C344.521 362.972 343.667 364.009 342.71 364.966C341.776 365.9 340.807 366.72 339.805 367.427C338.825 368.11 337.868 368.646 336.934 369.033C335.999 369.421 335.179 369.614 334.473 369.614C333.857 369.614 333.299 369.478 332.798 369.204C332.319 368.908 331.909 368.555 331.567 368.145C331.248 367.712 330.998 367.267 330.815 366.812C330.633 366.333 330.542 365.911 330.542 365.547C330.542 365.251 330.576 365.057 330.645 364.966C330.736 364.875 330.85 364.84 330.986 364.863C331.146 364.863 331.34 364.897 331.567 364.966C331.795 365.011 332.057 365.034 332.354 365.034C333.311 365.034 334.37 364.704 335.532 364.043C336.694 363.382 337.788 362.539 338.813 361.514C339.839 360.488 340.693 359.36 341.377 358.13C342.083 356.899 342.437 355.703 342.437 354.541C342.437 353.356 342.14 352.422 341.548 351.738C340.978 351.055 339.998 350.713 338.608 350.713C337.743 350.713 336.797 350.884 335.771 351.226C334.769 351.545 333.755 352 332.729 352.593C331.704 353.185 330.713 353.903 329.756 354.746C328.799 355.589 327.956 356.523 327.227 357.549C326.497 358.551 325.905 359.645 325.449 360.83C325.016 361.992 324.8 363.211 324.8 364.487C324.8 365.832 325.039 367.039 325.518 368.11C326.019 369.159 326.668 370.116 327.466 370.981C328.286 371.847 329.209 372.645 330.234 373.374C331.26 374.103 332.308 374.832 333.379 375.562C334.45 376.268 335.498 377.008 336.523 377.783C337.549 378.535 338.46 379.378 339.258 380.312C340.078 381.224 340.728 382.249 341.206 383.389C341.707 384.505 341.958 385.793 341.958 387.251C341.958 388.664 341.685 390.008 341.138 391.284C340.614 392.537 339.884 393.631 338.95 394.565C338.016 395.5 336.911 396.24 335.635 396.787C334.359 397.334 332.992 397.607 331.533 397.607ZM360.381 371.768C360.381 371.107 360.335 370.628 360.244 370.332C360.153 370.036 360.107 369.762 360.107 369.512C360.107 369.17 360.278 368.896 360.62 368.691C360.985 368.464 361.418 368.35 361.919 368.35C363.081 368.35 364.004 368.657 364.688 369.272C365.371 369.865 365.713 370.583 365.713 371.426V387.456C365.736 388.185 365.793 388.857 365.884 389.473C365.998 390.088 366.18 390.612 366.431 391.045C366.681 391.478 367.023 391.82 367.456 392.07C367.889 392.298 368.447 392.412 369.131 392.412C369.792 392.412 370.339 392.287 370.771 392.036C371.227 391.763 371.592 391.398 371.865 390.942C372.139 390.487 372.332 389.963 372.446 389.37C372.56 388.755 372.617 388.117 372.617 387.456V371.768C372.617 371.107 372.572 370.628 372.48 370.332C372.389 370.036 372.344 369.762 372.344 369.512C372.344 369.17 372.526 368.896 372.891 368.691C373.255 368.464 373.688 368.35 374.189 368.35C375.352 368.35 376.263 368.657 376.924 369.272C377.607 369.865 377.949 370.583 377.949 371.426V387.456C377.949 388.55 377.835 389.666 377.607 390.806C377.402 391.922 376.992 392.948 376.377 393.882C375.762 394.793 374.896 395.545 373.779 396.138C372.663 396.73 371.204 397.026 369.404 397.026C368.652 397.026 367.946 396.935 367.285 396.753C366.624 396.571 366.021 396.32 365.474 396.001C364.927 395.705 364.448 395.363 364.038 394.976C363.628 394.565 363.298 394.132 363.047 393.677C362.819 394.132 362.477 394.565 362.021 394.976C361.589 395.363 361.087 395.705 360.518 396.001C359.948 396.32 359.333 396.571 358.672 396.753C358.011 396.935 357.35 397.026 356.689 397.026C355.391 397.026 354.274 396.878 353.34 396.582C352.428 396.286 351.654 395.876 351.016 395.352C350.378 394.85 349.865 394.269 349.478 393.608C349.113 392.948 348.828 392.264 348.623 391.558C348.418 390.851 348.281 390.133 348.213 389.404C348.167 388.675 348.145 388.003 348.145 387.388V371.768C348.145 371.107 348.088 370.628 347.974 370.332C347.882 370.036 347.837 369.762 347.837 369.512C347.837 369.17 348.019 368.896 348.384 368.691C348.748 368.464 349.181 368.35 349.683 368.35C350.845 368.35 351.756 368.657 352.417 369.272C353.101 369.865 353.442 370.583 353.442 371.426V387.456C353.442 388.071 353.477 388.687 353.545 389.302C353.636 389.894 353.796 390.418 354.023 390.874C354.274 391.33 354.627 391.706 355.083 392.002C355.539 392.275 356.143 392.412 356.895 392.412C357.555 392.412 358.102 392.287 358.535 392.036C358.991 391.763 359.355 391.398 359.629 390.942C359.902 390.487 360.096 389.963 360.21 389.37C360.324 388.755 360.381 388.117 360.381 387.456V371.768ZM402.798 392.412C403.504 392.412 404.108 392.161 404.609 391.66C405.133 391.159 405.578 390.532 405.942 389.78C406.33 389.028 406.637 388.219 406.865 387.354C407.116 386.465 407.321 385.633 407.48 384.858C407.64 384.129 407.868 383.605 408.164 383.286C408.483 382.944 408.825 382.773 409.189 382.773C409.463 382.773 409.736 382.865 410.01 383.047C410.306 383.206 410.568 383.423 410.796 383.696C411.047 383.97 411.24 384.277 411.377 384.619C411.536 384.961 411.616 385.303 411.616 385.645C411.616 385.69 411.616 385.747 411.616 385.815C411.616 385.884 411.593 385.986 411.548 386.123C411.252 387.285 410.841 388.504 410.317 389.78C409.816 391.056 409.167 392.23 408.369 393.301C407.572 394.372 406.603 395.26 405.464 395.967C404.347 396.673 403.037 397.026 401.533 397.026C400.303 397.026 399.232 396.764 398.32 396.24C397.409 395.716 396.691 395.021 396.167 394.155C395.461 394.953 394.606 395.625 393.604 396.172C392.624 396.742 391.473 397.026 390.151 397.026C388.784 397.026 387.576 396.753 386.528 396.206C385.503 395.659 384.637 394.919 383.931 393.984C383.224 393.027 382.689 391.911 382.324 390.635C381.982 389.336 381.812 387.946 381.812 386.465C381.812 383.548 382.279 380.928 383.213 378.604C384.147 376.279 385.389 374.308 386.938 372.69C388.488 371.05 390.254 369.797 392.236 368.931C394.242 368.065 396.315 367.632 398.457 367.632C399.414 367.632 400.189 367.894 400.781 368.418C401.374 368.942 401.67 369.66 401.67 370.571C401.67 371.164 401.602 371.585 401.465 371.836C401.351 372.064 401.123 372.178 400.781 372.178C400.462 372.178 400.132 372.155 399.79 372.109C399.448 372.064 399.095 372.041 398.73 372.041C397.409 372.041 396.064 372.337 394.697 372.93C393.33 373.499 392.088 374.388 390.972 375.596C389.878 376.781 388.978 378.296 388.271 380.142C387.565 381.965 387.212 384.141 387.212 386.67C387.212 388.516 387.565 389.94 388.271 390.942C388.978 391.922 389.946 392.412 391.177 392.412C392.134 392.412 392.931 392.059 393.569 391.353C394.207 390.623 394.72 389.769 395.107 388.789V377.988C395.107 377.646 395.085 377.362 395.039 377.134C395.016 376.906 394.982 376.712 394.937 376.553C394.914 376.393 394.891 376.257 394.868 376.143C394.845 376.006 394.834 375.881 394.834 375.767C394.834 375.402 395.005 375.117 395.347 374.912C395.711 374.684 396.144 374.57 396.646 374.57C397.808 374.57 398.73 374.878 399.414 375.493C400.098 376.086 400.439 376.803 400.439 377.646V389.199C400.439 389.587 400.485 389.974 400.576 390.361C400.667 390.726 400.804 391.068 400.986 391.387C401.169 391.683 401.408 391.934 401.704 392.139C402.023 392.321 402.388 392.412 402.798 392.412ZM415.649 397.026C414.282 397.026 413.04 396.787 411.924 396.309C410.807 395.83 409.85 395.124 409.053 394.189C408.278 393.232 407.674 392.059 407.241 390.669C406.831 389.256 406.626 387.627 406.626 385.781C406.626 383.092 407.002 380.7 407.754 378.604C408.506 376.484 409.531 374.673 410.83 373.169C412.129 371.642 413.633 370.435 415.342 369.546C417.051 368.634 418.862 368.042 420.776 367.769V351.943C420.776 351.442 420.731 351.043 420.64 350.747C420.571 350.451 420.492 350.223 420.4 350.063C420.332 349.881 420.252 349.744 420.161 349.653C420.093 349.539 420.059 349.425 420.059 349.312C420.059 349.175 420.127 349.061 420.264 348.97C420.4 348.879 420.583 348.799 420.811 348.73C421.038 348.662 421.278 348.617 421.528 348.594C421.802 348.548 422.064 348.525 422.314 348.525C423.477 348.525 424.388 348.833 425.049 349.448C425.732 350.041 426.074 350.758 426.074 351.602V389.199C426.074 389.587 426.12 389.974 426.211 390.361C426.302 390.726 426.439 391.068 426.621 391.387C426.826 391.683 427.077 391.934 427.373 392.139C427.692 392.321 428.057 392.412 428.467 392.412C429.173 392.412 429.777 392.161 430.278 391.66C430.802 391.159 431.247 390.532 431.611 389.78C431.999 389.028 432.306 388.219 432.534 387.354C432.785 386.465 432.99 385.633 433.149 384.858C433.286 384.129 433.514 383.605 433.833 383.286C434.152 382.944 434.482 382.773 434.824 382.773C435.098 382.773 435.382 382.865 435.679 383.047C435.975 383.206 436.237 383.423 436.465 383.696C436.715 383.97 436.909 384.277 437.046 384.619C437.205 384.961 437.285 385.303 437.285 385.645C437.285 385.69 437.285 385.747 437.285 385.815C437.285 385.884 437.262 385.986 437.217 386.123C436.921 387.285 436.51 388.504 435.986 389.78C435.485 391.056 434.824 392.23 434.004 393.301C433.206 394.372 432.249 395.26 431.133 395.967C430.016 396.673 428.706 397.026 427.202 397.026C425.994 397.026 424.935 396.776 424.023 396.274C423.112 395.773 422.394 395.112 421.87 394.292C421.095 395.09 420.195 395.739 419.17 396.24C418.167 396.764 416.994 397.026 415.649 397.026ZM416.709 392.412C417.62 392.412 418.407 392.15 419.067 391.626C419.751 391.102 420.321 390.452 420.776 389.678V372.383C419.637 372.588 418.532 372.975 417.461 373.545C416.413 374.092 415.479 374.867 414.658 375.869C413.861 376.872 413.223 378.148 412.744 379.697C412.266 381.224 412.026 383.081 412.026 385.269C412.026 386.545 412.152 387.638 412.402 388.55C412.676 389.438 413.018 390.168 413.428 390.737C413.861 391.307 414.362 391.729 414.932 392.002C415.501 392.275 416.094 392.412 416.709 392.412Z"/></g><defs><filter id="filter0_d" width="569.144" height="459.622" x=".815" y=".237" color-interpolation-filters="sRGB" filterUnits="userSpaceOnUse"><feFlood flood-opacity="0" result="BackgroundImageFix"/><feColorMatrix in="SourceAlpha" result="hardAlpha" type="matrix" values="0 0 0 0 0 0 0 0 0 0 0 0 0 0 0 0 0 0 127 0"/><feOffset dx="8" dy="10"/><feGaussianBlur stdDeviation="15"/><feComposite in2="hardAlpha" operator="out"/><feColorMatrix type="matrix" values="0 0 0 0 0 0 0 0 0 0 0 0 0 0 0 0 0 0 1 0"/><feBlend in2="BackgroundImageFix" mode="normal" result="effect1_dropShadow"/><feBlend in="SourceGraphic" in2="effect1_dropShadow" mode="normal" result="shape"/></filter></defs></svg>